# xmcd
#
# Track frame offsets:
#	183
#	18485
#	37790
#	47095
#	68798
#	83340
#	96775
#	109678
#	122563
#	141595
#	164863
#	183615
#	201148
#	217868
#	235005
#
# Disc length: 3372 seconds
#
# Revision: 0
# Processed by: cddbd v1.5.2PL0 Copyright (c) Steve Scherf et al.
# Submitted via: EasyCDDAExtractor 10.0.5.1
#
DISCID=c90d2a0f
DTITLE=Various Artist - 30 All Time Greats Vol III (Disk One)
DYEAR=1990
DGENRE=Ballad
TTITLE0=Marvin Gaye - Let's Get It On
TTITLE1=Phyllis Nelson - Move Closer (New Mix Edit)
TTITLE2=Bill Withers - Ain't No Sunshine
TTITLE3=Barry White - just The Way You Are
TTITLE4=Al Green - I'm Still In Love With You
TTITLE5=Four Tops - Reach Out I'll Be There
TTITLE6=Smokey Robinson and The Miracles - The Tracks Of My Tears
TTITLE7=Deniece Williams - Free
TTITLE8=Michael Jackson - One Day In Your Life
TTITLE9=Chi-Lites - Have You Seen Her
TTITLE10=Commodores - Easy
TTITLE11=The Isley Brothers - Harvest For The World
TTITLE12=Detroit Emeralds - Feel The Need In Me
TTITLE13=Gladys Knight And The Pips - Best Thing That Ever Happened To Me
TTITLE14=Millie Jackson - (If Loving You Is Wrong) I Don't Want To Be Right
EXTD=
EXTT0=
EXTT1=
EXTT2=
EXTT3=
EXTT4=
EXTT5=
EXTT6=
EXTT7=
EXTT8=
EXTT9=
EXTT10=
EXTT11=
EXTT12=
EXTT13=
EXTT14=
PLAYORDER=
